<?xml version="1.0" encoding="UTF-8"?>
<!DOCTYPE svg PUBLIC "-//W3C//DTD SVG 1.1//EN" "http://www.w3.org/Graphics/SVG/1.1/DTD/svg11.dtd">
<!-- Creator: CorelDRAW X6 -->
<svg xmlns="http://www.w3.org/2000/svg" xml:space="preserve" width="165.404mm" height="69.6866mm" version="1.1" shape-rendering="geometricPrecision" text-rendering="geometricPrecision" image-rendering="optimizeQuality" fill-rule="evenodd" clip-rule="evenodd"
viewBox="0 0 6041 2545"
 xmlns:xlink="http://www.w3.org/1999/xlink">
 <g id="Layer_x0020_1">
  <metadata id="CorelCorpID_0Corel-Layer"/>
  <g id="_1458072016">
   <path fill="#648690" d="M1666 223c32,-1 57,11 59,55 2,44 -53,124 -53,124 0,0 -62,-75 -64,-119 -2,-40 20,-56 48,-59 -1,-21 -1,-41 0,-62l-50 14c0,0 0,0 0,0 -2,3 -5,6 -7,10 -5,7 -11,14 -16,21 -3,4 -6,8 -9,11 -41,52 -83,102 -124,156 -1,1 -2,2 -2,3 -5,7 -10,13 -15,20 -6,8 -12,16 -18,23 -4,5 -7,10 -11,15 -4,6 -9,12 -13,18 12,23 27,44 43,65 27,-22 59,-29 90,8 32,38 38,146 38,146 0,0 -106,-25 -138,-62 -29,-35 -21,-63 2,-85 -16,-19 -31,-38 -44,-59 -59,85 -120,182 -163,283 -4,10 -8,20 -12,30 -22,57 -37,115 -41,172 -3,31 -3,62 0,93 1,17 3,34 6,50l139 -110c0,-20 -1,-40 -4,-60 -30,5 -57,-4 -64,-46 -7,-42 36,-126 36,-126 0,0 68,65 75,107 7,39 -12,56 -39,63 3,18 6,35 7,53l369 -291c8,-22 14,-46 18,-69 -29,-4 -50,-19 -45,-59 5,-40 68,-104 68,-104 0,0 44,78 39,118 -5,37 -27,48 -53,46 -2,19 -5,37 -10,55l131 -104c1,-1 3,1 2,2l-219 233c22,1 44,1 66,0 -3,-34 9,-63 56,-68 48,-5 139,49 139,49 0,0 -77,72 -125,77 -44,5 -62,-17 -67,-48 -27,3 -53,5 -80,3l-83 89 306 88 138 -193c0,-289 0,-593 0,-728l-302 86c-3,21 -4,43 -4,65z"/>
   <path fill="#B5CDD1" d="M599 82c-29,-13 -47,-36 -29,-76 1,-2 2,-4 3,-6l-116 0 113 132c11,-16 20,-33 29,-50z"/>
   <path fill="#B5CDD1" d="M1021 993c0,-1 0,-2 0,-3l0 -1c6,-114 32,-226 82,-328 0,0 0,0 0,0 0,-1 1,-1 1,-2 3,-6 5,-11 8,-16 3,-7 7,-14 11,-21 25,-45 54,-87 86,-126 0,0 0,0 0,0l-52 -228c-23,9 -45,21 -66,34 18,28 21,58 -17,83 -39,26 -141,20 -141,20 0,0 34,-97 73,-122 36,-24 61,-13 80,11 22,-15 45,-28 69,-39l-58 -254 -411 0c1,20 -1,40 -7,54 -17,37 -43,41 -70,32 -8,19 -18,38 -29,56l84 98c26,-5 51,-14 75,-24 -13,-29 -11,-58 29,-76 40,-19 136,2 136,2 0,0 -47,86 -87,105 -37,17 -60,3 -74,-22 -23,11 -46,20 -70,26l92 108 -11 243c16,2 33,3 50,4 0,-32 13,-58 57,-58 45,-1 124,57 124,57 0,0 -78,60 -122,61 -41,1 -56,-21 -58,-50 -17,0 -34,0 -51,-1l-14 318 284 198c-2,-21 -3,-42 -4,-63 0,-2 0,-4 0,-6 0,-10 0,-19 0,-29 0,-2 0,-5 0,-7 0,-11 0,-21 1,-32z"/>
   <polygon fill="#7B9EA6" points="1207,129 1326,0 1169,0 "/>
   <path fill="#7B9EA6" d="M1235 250l44 167c16,-18 33,-35 49,-52l0 0c51,-52 104,-102 155,-154 32,-31 62,-63 91,-97 30,-35 59,-71 85,-109 1,-2 2,-3 3,-5l-279 0 -148 250z"/>
   <path fill="#7B9EA6" d="M1671 85c-1,1 -2,2 -2,4l303 -43c0,-29 0,-46 0,-46l-250 0c-15,28 -32,56 -50,85z"/>
   <path fill="#597179" d="M1828 1352c1,-29 13,-52 53,-52 26,0 66,23 90,40 0,-100 0,-255 0,-425l-104 162 -364 -79c12,21 26,40 41,59 26,-22 57,-29 87,7 31,36 38,142 38,142 0,0 -103,-23 -134,-59 -29,-33 -21,-61 1,-83 -19,-22 -37,-45 -51,-70l-9 -2 -272 232c30,89 73,178 119,265 0,0 0,0 0,0 5,9 9,17 14,26 19,36 39,72 58,108 5,10 10,19 15,29l169 -43 76 -132c-7,-20 -15,-39 -25,-57 -27,15 -54,15 -75,-21 -21,-37 -9,-130 -9,-130 0,0 86,38 107,75 19,34 8,57 -15,72 9,16 18,32 25,49l151 -261c2,-3 6,-1 5,2l-46 140c18,3 36,5 55,6z"/>
   <path fill="#597179" d="M1971 1370c-25,16 -64,38 -91,38 -37,0 -50,-21 -52,-47 -20,0 -39,-1 -59,-4l-72 218 270 -61c2,-32 3,-64 3,-96 0,-13 0,-29 0,-48z"/>
   <path fill="#CADCDE" d="M103 661c21,-8 41,-18 61,-28 -17,-29 -18,-59 21,-82 40,-24 142,-14 142,-14 0,0 -38,95 -78,119 -36,22 -61,10 -79,-15 -19,12 -39,23 -60,32l73 140 307 54c-1,-21 -3,-42 -6,-63 -38,7 -72,-4 -82,-57 -10,-54 44,-161 44,-161 0,0 88,81 98,135 9,49 -14,72 -48,81 4,23 8,46 9,68l136 24 22 -371c-17,-20 -35,-39 -55,-56 -21,26 -49,38 -85,9 -36,-29 -62,-128 -62,-128 0,0 102,3 139,32 33,27 31,54 14,79 18,14 35,29 50,45l8 -126 -198 -251c-13,8 -26,17 -39,26 19,24 25,52 -8,79 -34,28 -130,31 -130,31 0,0 23,-93 57,-121 31,-25 56,-17 75,3 12,-10 25,-20 37,-28l-91 -116 0 -1 -375 0 0 0 0 0 0 1 0 1 0 1 0 2 0 2 0 2 0 2 0 3 0 3 0 3 0 3 0 4 0 4 0 4 0 4 0 5 0 5 0 5 0 5 0 6 0 6 0 6 0 6 0 7 0 7 0 7 0 7 0 7 0 8 0 8 0 8 0 8 0 8 0 8 0 9 0 9 0 9 0 9 0 9 0 9 0 10 0 10 0 10 0 10 0 10 0 10 0 10 0 11 0 11 0 11 0 11 0 11 0 11 0 11 0 11 0 11 0 12 0 12 0 12 0 12 0 12 0 12 103 198z"/>
   <path fill="#7B9EA6" d="M1578 1691c14,15 29,28 45,41 21,-27 49,-40 86,-12 38,29 67,130 67,130 0,0 -105,0 -143,-29 -35,-26 -33,-55 -16,-81 -19,-14 -37,-29 -53,-45l-115 34c7,15 14,30 21,44 0,0 0,0 0,0 0,0 0,0 0,0 0,0 0,0 0,0 5,10 9,19 13,29 1,2 1,3 2,5 9,20 17,40 25,60 0,0 0,1 0,1 4,9 7,19 10,28 1,4 2,7 4,11 2,7 5,14 7,21 1,3 2,5 2,8 3,10 6,20 9,30 22,79 34,161 36,243 17,-14 33,-28 49,-43 234,-212 311,-406 334,-587l-384 112z"/>
   <path fill="#48535B" d="M896 1659l277 -50c-9,-18 -17,-35 -26,-53l-251 -11 0 114z"/>
   <path fill="#48535B" d="M896 1786l366 26c-7,-20 -15,-41 -23,-60 0,-1 -1,-1 -1,-2 0,-1 -1,-2 -1,-3 0,0 0,0 0,0 0,0 0,0 0,0 -14,-34 -30,-67 -46,-100l-295 53 0 87z"/>
   <path fill="#48535B" d="M896 2512c56,23 89,33 89,33 0,0 66,-20 166,-67l-256 -13 0 46z"/>
   <path fill="#48535B" d="M896 2427l328 16c33,-17 67,-36 104,-57 5,-39 9,-79 10,-119l-441 45 0 115z"/>
   <path fill="#48535B" d="M896 1932l397 -21c-5,-20 -11,-40 -18,-60l-379 -27 0 108z"/>
   <path fill="#48535B" d="M0 508c0,63 0,129 0,195 25,4 54,9 76,14l-76 -209z"/>
   <path fill="#48535B" d="M896 2012l429 56c-6,-40 -13,-79 -23,-118l-406 21 0 41z"/>
   <path fill="#48535B" d="M896 2125l437 14c-1,-11 -2,-21 -3,-32l-434 -56 0 75z"/>
   <path fill="#48535B" d="M896 2274l441 -45c0,-17 -1,-34 -1,-51l-440 -14 0 110z"/>
   <path fill="#48535B" d="M338 1732c-10,5 -17,11 -17,18 0,7 7,12 17,12 10,0 17,-5 17,-12 0,-8 -7,-14 -17,-19z"/>
   <path fill="#48535B" d="M403 1490c-22,0 -33,12 -33,47 0,35 11,47 33,47 22,0 33,-12 33,-47 0,-35 -10,-47 -33,-47z"/>
   <path fill="#48535B" d="M447 1717c8,-4 14,-9 14,-15 0,-6 -6,-9 -14,-9 -9,0 -14,4 -14,9 0,6 6,11 14,15z"/>
   <path fill="#48535B" d="M338 1717c8,-4 14,-9 14,-15 0,-6 -6,-9 -14,-9 -9,0 -14,4 -14,9 0,6 6,11 14,15z"/>
   <path fill="#48535B" d="M228 1482c0,0 -3,19 -6,26l-13 36 36 0 -13 -36c-2,-8 -5,-26 -5,-26z"/>
   <path fill="#48535B" d="M573 1482c0,0 -3,19 -6,26l-13 36 36 0 -13 -36c-2,-8 -5,-26 -5,-26z"/>
   <path fill="#48535B" d="M650 1607l-52 0 -4 -19c7,0 9,-2 7,-10l-4 -11 -50 0 -4 11c-3,8 0,10 8,10l-4 19 -45 0 -4 -19c8,0 11,-2 14,-10l31 -85c2,-5 0,-9 -8,-9l4 -19 74 0 4 19c-9,0 -11,3 -8,8l31 86c3,8 5,10 14,10l-4 19zm-87 158l-2 10 -29 0c-13,-24 14,-52 30,-75l-28 0c-10,0 -12,2 -14,9l-10 -2 3 -26 75 0 3 8c-12,20 -39,48 -39,67 0,6 3,9 10,9zm-116 12c-26,0 -42,-10 -42,-26 0,-14 11,-21 23,-26 -11,-5 -20,-11 -20,-22 0,-14 15,-23 39,-23 23,0 39,9 39,23 0,11 -9,17 -20,22 12,5 23,13 23,26 0,16 -17,26 -42,26zm-116 -240c0,-53 30,-73 73,-73 43,0 73,20 73,73 0,53 -30,73 -73,73 -43,0 -73,-20 -73,-73zm7 240c-26,0 -42,-10 -42,-26 0,-14 11,-21 23,-26 -11,-5 -20,-11 -20,-22 0,-14 15,-23 39,-23 23,0 39,9 39,23 0,11 -9,17 -20,22 12,5 23,13 23,26 0,16 -17,26 -42,26zm-84 -169l-4 -19c7,0 9,-2 7,-10l-4 -11 -50 0 -4 11c-3,8 0,10 8,10l-4 19 -45 0 -4 -19c8,0 11,-2 14,-10l31 -85c2,-5 0,-9 -8,-9l4 -19 74 0 4 19c-9,0 -11,3 -8,8l31 86c3,8 5,10 14,10l-4 19 -52 0zm16 167l-49 0 -3 -12 6 0c6,0 8,-2 8,-7l0 -50c-3,3 -8,5 -18,6l0 -14c10,-2 16,-5 23,-17l20 0 0 75c0,5 2,7 8,7l6 0 -3 12zm859 -257c-5,-10 -9,-20 -13,-29 -7,-16 -14,-32 -20,-48 0,0 0,0 0,0 0,0 0,0 0,0 -4,-11 -8,-21 -12,-32 -1,-3 -2,-5 -3,-8 -3,-8 -6,-17 -8,-25 -1,-3 -2,-5 -2,-8 -7,-22 -13,-44 -19,-67l-340 -257 -49 -14c-10,17 -19,35 -27,52 37,16 60,44 39,95 -21,52 -128,116 -128,116 0,0 -31,-120 -10,-172 20,-48 53,-54 87,-43 7,-18 15,-35 24,-52l-252 -74c-17,13 -33,26 -48,41 25,25 35,56 1,91 -35,36 -144,53 -144,53 0,0 14,-109 49,-145 32,-33 61,-27 86,-6 13,-13 26,-26 40,-38l-247 -72 -51 -142c-21,-6 -54,-12 -81,-17 0,299 0,601 0,703 0,225 37,471 343,748 151,137 311,231 433,292l0 -1157 121 0 0 207 232 10z"/>
   <path fill="#48535B" d="M447 1732c-10,5 -17,11 -17,18 0,7 7,12 17,12 10,0 17,-5 17,-12 0,-8 -7,-14 -17,-19z"/>
   <path fill="#597179" d="M2617 476c-4,-10 -6,-25 -6,-25 0,0 -2,15 -7,25l-50 120 111 0 -48 -120zm131 229l-63 0 -4 -16c18,0 21,-5 15,-19l-19 -48 -132 0 -20 48c-6,15 -3,19 15,19l-4 16 -59 0 -4 -16c13,0 17,-3 24,-19l88 -208c3,-7 0,-10 -14,-10l4 -16 77 0 4 16c-15,0 -18,3 -14,10l88 208c6,15 11,19 24,19l-4 16z"/>
   <path fill="#597179" d="M3126 705l-60 0 -4 -16c15,0 19,-6 19,-21l0 -165c0,-13 2,-25 2,-25 0,0 -5,11 -14,24l-92 140 -12 0 -88 -136c-7,-12 -13,-24 -13,-24 0,0 2,14 2,25l0 160c0,15 4,21 19,21l-4 16 -56 0 -4 -16c15,0 19,-6 19,-21l0 -196c0,-15 -4,-21 -19,-21l4 -16 41 0 108 166 110 -166 44 0 4 16c-15,0 -19,5 -19,21l0 196c0,15 4,21 19,21l-4 16z"/>
   <path fill="#597179" d="M3428 705l-193 0 -4 -16c15,0 19,-6 19,-21l0 -196c0,-15 -4,-21 -19,-21l4 -16 180 0 0 46 -14 5c0,-21 -5,-27 -38,-27l-81 0 0 92 85 0c15,0 20,-4 20,-19l14 4 0 54 -14 4c0,-15 -5,-19 -20,-19l-85 0 0 105 106 0c23,0 27,-6 31,-27l15 5 -5 46z"/>
   <path fill="#597179" d="M3645 459l-71 0 0 105 71 0c43,0 67,-17 67,-53 0,-36 -24,-53 -67,-53zm133 246l-41 0c-43,-21 -32,-117 -90,-117l-74 0 0 81c0,15 4,21 19,21l-4 16 -61 0 -4 -16c15,0 19,-6 19,-21l0 -196c0,-15 -4,-21 -19,-21l4 -16 118 0c61,0 98,29 98,76 0,34 -19,59 -53,70 49,19 32,108 88,108l4 0 -4 16z"/>
   <path fill="#597179" d="M3921 705l-61 0 -4 -16c15,0 19,-6 19,-21l0 -196c0,-15 -4,-21 -19,-21l4 -16 61 0 4 16c-15,0 -19,5 -19,21l0 196c0,15 4,21 19,21l-4 16z"/>
   <path fill="#597179" d="M4145 710c-74,0 -128,-46 -128,-139 0,-85 47,-139 128,-139 52,0 91,22 99,26l-10 44 -9 0c-11,-36 -43,-45 -78,-45 -68,0 -99,50 -99,114 0,64 31,114 99,114 39,0 64,-11 77,-46l10 0 9 45c-17,12 -48,26 -99,26z"/>
   <path fill="#597179" d="M4444 476c-4,-10 -6,-25 -6,-25 0,0 -2,15 -7,25l-50 120 111 0 -48 -120zm131 229l-63 0 -4 -16c18,0 21,-5 15,-19l-19 -48 -132 0 -20 48c-6,15 -3,19 15,19l-4 16 -59 0 -4 -16c13,0 17,-3 24,-19l88 -208c3,-7 0,-10 -14,-10l4 -16 77 0 4 16c-15,0 -18,3 -14,10l88 208c6,15 11,19 24,19l-4 16z"/>
   <path fill="#597179" d="M4886 472l0 236 -19 0 -165 -210c-6,-7 -13,-19 -13,-19 0,0 1,13 1,21l0 169c0,15 4,21 19,21l-4 16 -56 0 -4 -16c15,0 19,-6 19,-21l0 -196c0,-15 -4,-21 -19,-21l4 -16 44 0 156 198c7,9 13,19 13,19 0,0 -1,-12 -1,-22l0 -159c0,-15 -4,-21 -19,-21l4 -16 56 0 4 16c-15,0 -19,5 -19,21z"/>
   <path fill="#597179" d="M2625 1008c-45,0 -66,25 -66,96 0,71 21,96 66,96 45,0 66,-25 66,-96 0,-71 -20,-96 -66,-96zm0 243c-86,0 -147,-40 -147,-147 0,-108 61,-147 147,-147 88,0 147,40 147,147 0,108 -60,147 -147,147z"/>
   <path fill="#597179" d="M2990 1004l-43 0 0 82 41 0c31,0 47,-16 47,-41 0,-25 -15,-41 -46,-41zm146 242l-85 0c-42,-40 -12,-114 -70,-114l-34 0 0 55c0,16 4,22 22,22l-8 38 -106 0 -8 -38c19,0 23,-6 23,-22l0 -167c0,-16 -4,-22 -23,-22l8 -38 145 0c70,0 111,29 111,82 0,35 -19,59 -54,72 36,10 45,43 49,63 5,23 9,31 31,31l6 0 -8 38z"/>
   <path fill="#597179" d="M3421 1038c-3,-19 -9,-29 -39,-29l-28 0 0 178c0,16 4,22 22,22l-8 38 -106 0 -8 -38c19,0 23,-6 23,-22l0 -178 -28 0c-30,0 -36,9 -39,29l-31 -6 8 -71 256 0 8 71 -31 6z"/>
   <path fill="#597179" d="M3811 1246l-106 0 -8 -38c19,0 23,-6 23,-22l0 -64 -108 0 0 64c0,16 4,22 22,22l-8 38 -106 0 -8 -38c19,0 23,-6 23,-22l0 -167c0,-16 -4,-22 -23,-22l8 -38 106 0 8 38c-19,0 -22,6 -22,22l0 51 108 0 0 -51c0,-16 -4,-22 -23,-22l8 -38 106 0 8 38c-19,0 -22,6 -22,22l0 167c0,16 4,22 22,22l-8 38z"/>
   <path fill="#597179" d="M4039 1008c-45,0 -66,25 -66,96 0,71 21,96 66,96 45,0 66,-25 66,-96 0,-71 -20,-96 -66,-96zm0 243c-86,0 -147,-40 -147,-147 0,-108 61,-147 147,-147 88,0 147,40 147,147 0,108 -60,147 -147,147z"/>
   <path fill="#597179" d="M4392 1008l-32 0 0 87 34 0c35,0 47,-19 47,-44 0,-24 -12,-43 -48,-43zm7 134l-40 0 0 44c0,16 4,22 22,22l-8 38 -106 0 -8 -38c19,0 23,-6 23,-22l0 -167c0,-16 -4,-22 -23,-22l8 -38 128 0c76,0 116,31 116,91 0,60 -41,91 -114,91z"/>
   <path fill="#597179" d="M4708 1046c-5,-16 -9,-53 -9,-53 0,0 -7,38 -12,53l-27 74 73 0 -26 -74zm147 200l-105 0 -8 -38c14,0 19,-4 13,-20l-8 -22 -102 0 -8 22c-6,16 1,20 16,20l-8 38 -90 0 -8 -38c17,0 22,-3 28,-20l63 -173c4,-11 1,-18 -17,-18l8 -38 151 0 8 38c-19,0 -21,6 -17,17l64 174c6,16 11,20 28,20l-8 38z"/>
   <path fill="#597179" d="M5148 1246l-221 0 -8 -38c19,0 23,-6 23,-22l0 -167c0,-16 -4,-22 -23,-22l8 -38 211 0 0 68 -30 6c-3,-22 -9,-27 -41,-27l-49 0 0 69 45 0c19,0 26,-3 26,-18l31 7 0 68 -31 8c0,-15 -7,-19 -26,-19l-45 0 0 75 68 0c30,0 35,-8 39,-29l31 6 -8 70z"/>
   <path fill="#597179" d="M5324 1008l0 190 38 0c53,0 77,-31 77,-95 0,-64 -25,-95 -77,-95l-38 0zm39 238l-130 0 -8 -38c19,0 23,-6 23,-22l0 -167c0,-16 -4,-22 -23,-22l8 -38 130 0c110,0 153,50 153,143 0,93 -44,143 -153,143z"/>
   <path fill="#597179" d="M5706 1246l-107 0 -8 -38c19,0 23,-6 23,-22l0 -167c0,-16 -4,-22 -23,-22l8 -38 107 0 8 38c-19,0 -23,6 -23,22l0 167c0,16 4,22 23,22l-8 38z"/>
   <path fill="#597179" d="M5933 1251c-80,0 -143,-45 -143,-147 0,-95 55,-147 143,-147 55,0 90,19 108,30l-16 64 -26 0c-7,-29 -29,-40 -57,-40 -47,0 -70,28 -70,93 0,65 24,93 71,93 31,0 50,-15 57,-41l26 0 16 65c-26,16 -59,30 -108,30z"/>
   <path fill="#597179" d="M2617 1545c-4,-10 -6,-25 -6,-25 0,0 -2,15 -7,25l-50 120 111 0 -48 -120zm131 229l-63 0 -4 -16c18,0 21,-5 15,-19l-19 -48 -132 0 -20 48c-6,15 -3,19 15,19l-4 16 -59 0 -4 -16c13,0 17,-3 24,-19l88 -208c3,-7 0,-10 -14,-10l4 -16 77 0 4 16c-15,0 -18,3 -14,10l88 208c6,15 11,19 24,19l-4 16z"/>
   <path fill="#597179" d="M2908 1779c-52,0 -88,-22 -95,-26l9 -44 9 0c11,36 45,46 79,46 34,0 68,-15 68,-51 0,-28 -21,-43 -74,-53 -46,-8 -88,-30 -88,-74 0,-45 40,-76 96,-76 48,0 78,16 85,20l-8 42 -9 0c-12,-31 -41,-37 -67,-37 -35,0 -67,16 -67,48 0,26 20,38 62,46 62,11 102,32 102,81 0,50 -45,79 -101,79z"/>
   <path fill="#597179" d="M3193 1779c-52,0 -88,-22 -95,-26l9 -44 9 0c11,36 45,46 79,46 34,0 68,-15 68,-51 0,-28 -21,-43 -74,-53 -46,-8 -88,-30 -88,-74 0,-45 40,-76 96,-76 48,0 78,16 85,20l-8 42 -9 0c-12,-31 -41,-37 -67,-37 -35,0 -67,16 -67,48 0,26 20,38 62,46 62,11 102,32 102,81 0,50 -45,79 -101,79z"/>
   <path fill="#597179" d="M3513 1528c-70,0 -102,41 -102,112 0,71 32,112 102,112 70,0 102,-41 102,-112 0,-71 -32,-112 -102,-112zm0 251c-84,0 -134,-51 -134,-139 0,-88 50,-139 134,-139 84,0 134,51 134,139 0,88 -50,139 -134,139z"/>
   <path fill="#597179" d="M3860 1779c-74,0 -128,-46 -128,-139 0,-85 47,-139 128,-139 52,0 91,22 99,26l-10 44 -9 0c-11,-36 -43,-45 -78,-45 -68,0 -99,50 -99,114 0,64 31,114 99,114 39,0 64,-11 77,-46l10 0 9 45c-17,12 -48,26 -99,26z"/>
   <path fill="#597179" d="M4119 1775l-61 0 -4 -16c15,0 19,-6 19,-21l0 -196c0,-15 -4,-21 -19,-21l4 -16 61 0 4 16c-15,0 -19,5 -19,21l0 196c0,15 4,21 19,21l-4 16z"/>
   <path fill="#597179" d="M4343 1545c-4,-10 -6,-25 -6,-25 0,0 -2,15 -7,25l-50 120 111 0 -48 -120zm131 229l-63 0 -4 -16c18,0 21,-5 15,-19l-19 -48 -132 0 -20 48c-6,15 -3,19 15,19l-4 16 -59 0 -4 -16c13,0 17,-3 24,-19l88 -208c3,-7 0,-10 -14,-10l4 -16 77 0 4 16c-15,0 -18,3 -14,10l88 208c6,15 11,19 24,19l-4 16z"/>
   <path fill="#597179" d="M4742 1556c-3,-18 -7,-27 -31,-27l-60 0 0 209c0,15 4,21 19,21l-4 16 -61 0 -4 -16c15,0 19,-6 19,-21l0 -209 -60 0c-24,0 -28,9 -31,27l-14 -5 5 -46 234 0 5 46 -14 5z"/>
   <path fill="#597179" d="M4904 1775l-61 0 -4 -16c15,0 19,-6 19,-21l0 -196c0,-15 -4,-21 -19,-21l4 -16 61 0 4 16c-15,0 -19,5 -19,21l0 196c0,15 4,21 19,21l-4 16z"/>
   <path fill="#597179" d="M5138 1528c-70,0 -102,41 -102,112 0,71 32,112 102,112 70,0 102,-41 102,-112 0,-71 -32,-112 -102,-112zm0 251c-84,0 -134,-51 -134,-139 0,-88 50,-139 134,-139 84,0 134,51 134,139 0,88 -50,139 -134,139z"/>
   <path fill="#597179" d="M5602 1542l0 236 -19 0 -165 -210c-6,-7 -13,-19 -13,-19 0,0 1,13 1,21l0 169c0,15 4,21 19,21l-4 16 -56 0 -4 -16c15,0 19,-6 19,-21l0 -196c0,-15 -4,-21 -19,-21l4 -16 44 0 156 198c7,9 13,19 13,19 0,0 -1,-12 -1,-22l0 -159c0,-15 -4,-21 -19,-21l4 -16 56 0 4 16c-15,0 -19,5 -19,21z"/>
  </g>
 </g>
</svg>
